<?xml version="1.0" standalone="no"?>
<!DOCTYPE svg PUBLIC "-//W3C//DTD SVG 20010904//EN"
 "http://www.w3.org/TR/2001/REC-SVG-20010904/DTD/svg10.dtd">
<svg version="1.0" xmlns="http://www.w3.org/2000/svg"
 width="150.000000pt" height="62.000000pt" viewBox="0 0 150.000000 62.000000"
 preserveAspectRatio="xMidYMid meet">
<metadata>
Created by potrace 1.10, written by Peter Selinger 2001-2011
</metadata>
<g transform="translate(0.000000,62.000000) scale(0.100000,-0.100000)"
fill="#000000" stroke="none">
<path d="M37 520 c4 -16 14 -20 44 -20 23 0 41 -5 44 -12 2 -7 9 -32 15 -55
l11 -43 214 0 c184 0 215 2 215 15 0 13 -29 15 -200 15 l-199 0 -11 43 c-6 23
-13 50 -16 60 -4 14 -17 17 -64 17 -53 0 -58 -2 -53 -20z"/>
<path d="M174 318 l12 -43 162 -3 c158 -2 162 -3 159 -24 -4 -38 20 -29 31 12
l10 40 -159 0 c-99 0 -159 -4 -159 -10 0 -5 -4 -10 -10 -10 -5 0 -9 3 -9 8 4
22 -3 34 -16 28 -8 -3 -15 -1 -15 3 0 5 5 11 12 13 15 5 1 28 -17 28 -11 0
-12 -7 -1 -42z m113 -34 c-3 -3 -12 -4 -19 -1 -8 3 -5 6 6 6 11 1 17 -2 13 -5z
m96 -1 c-13 -2 -35 -2 -50 0 -16 2 -5 4 22 4 28 0 40 -2 28 -4z m110 0 c-13
-2 -35 -2 -50 0 -16 2 -5 4 22 4 28 0 40 -2 28 -4z"/>
<path d="M648 293 c-29 -31 -68 -104 -68 -128 0 -32 20 -13 46 45 45 101 69
104 39 6 -27 -90 -13 -90 45 -1 24 36 44 64 47 62 2 -2 -2 -28 -8 -56 -11 -52
-7 -74 10 -55 10 11 34 144 27 151 -10 11 -42 -9 -64 -40 l-23 -32 3 35 c4 45
-19 50 -54 13z"/>
<path d="M965 260 c3 -5 8 -10 11 -10 2 0 4 5 4 10 0 6 -5 10 -11 10 -5 0 -7
-4 -4 -10z"/>
<path d="M1083 263 c-22 -8 -14 -40 14 -61 29 -21 24 -47 -8 -37 -11 4 -19 2
-19 -4 0 -17 46 -13 61 5 12 14 9 20 -19 44 -39 32 -40 40 -7 40 14 0 25 5 25
10 0 10 -26 12 -47 3z"/>
<path d="M1163 210 c0 -36 2 -53 4 -37 4 22 9 27 33 27 24 0 29 -5 33 -27 2
-16 4 1 4 37 0 36 -2 53 -4 38 -4 -23 -9 -28 -33 -28 -24 0 -29 5 -33 28 -2
15 -4 -2 -4 -38z"/>
<path d="M1286 254 c-23 -22 -21 -81 3 -94 43 -22 81 1 81 49 0 50 -52 78 -84
45z m64 -19 c15 -18 6 -61 -15 -69 -35 -13 -63 23 -50 64 8 24 47 27 65 5z"/>
<path d="M1397 263 c-11 -10 -8 -113 3 -113 6 0 10 8 10 18 0 11 11 24 25 30
33 15 35 57 3 66 -29 7 -33 7 -41 -1z m48 -33 c0 -8 -8 -16 -17 -18 -13 -2
-18 3 -18 18 0 15 5 20 18 18 9 -2 17 -10 17 -18z"/>
<path d="M800 230 c-12 -8 -11 -10 8 -10 12 0 22 -4 22 -10 0 -5 -9 -10 -19
-10 -21 0 -33 -21 -23 -38 4 -5 19 -9 35 -9 23 2 27 6 27 32 0 28 -15 55 -29
55 -4 0 -13 -5 -21 -10z m30 -55 c-7 -8 -16 -15 -21 -15 -5 0 -9 7 -9 15 0 9
9 15 21 15 18 0 19 -2 9 -15z"/>
<path d="M893 232 c-19 -3 -23 -10 -23 -43 0 -21 5 -39 10 -39 6 0 10 16 10
36 0 49 32 44 41 -6 l6 -35 2 41 c1 44 -7 53 -46 46z"/>
<path d="M966 195 c1 -51 14 -56 14 -7 0 23 -3 42 -7 42 -5 0 -8 -16 -7 -35z"/>
<path d="M1018 193 c6 -2 18 -2 25 0 6 3 1 5 -13 5 -14 0 -19 -2 -12 -5z"/>
<path d="M212 173 c3 -16 18 -18 153 -18 135 0 150 2 153 18 3 16 -9 17 -153
17 -144 0 -156 -1 -153 -17z"/>
<path d="M269 108 c-10 -44 -8 -49 13 -46 28 4 32 41 6 46 -10 2 -18 2 -19 0z
m26 -18 c3 -6 -1 -7 -9 -4 -18 7 -21 14 -7 14 6 0 13 -4 16 -10z"/>
<path d="M421 87 c-1 -24 3 -28 22 -25 25 3 31 39 7 45 -13 4 -13 3 0 -6 13
-9 13 -11 -2 -11 -9 0 -19 6 -21 13 -3 6 -6 -1 -6 -16z"/>
</g>
</svg>
